<?xml version="1.0" encoding="UTF-8"?>
<svg width="3050px" height="482px" viewBox="0 0 3050 482" version="1.1" xmlns="http://www.w3.org/2000/svg" xmlns:xlink="http://www.w3.org/1999/xlink">
    <!-- Generator: Sketch 64 (93537) - https://sketch.com -->
    <title>1489798289</title>
    <desc>Created with Sketch.</desc>
    <g id="Page-1" stroke="none" stroke-width="1" fill="none" fill-rule="evenodd">
        <g id="1489798289" transform="translate(15.000000, 15.000000)">
            <g stroke-width="1" fill-rule="evenodd" id="1489798288">
                <g>
                    <g>
                        <path d="M33.0024046,286 C14.7756497,286 0,304.128563 0,326.491764 C0,348.854966 13.3768923,364.181615 33.0024046,366.983529 L278.462073,421 L499,296.662716" id="path4513-6" stroke="#333333" stroke-width="28.132741" stroke-linecap="round" stroke-linejoin="round"></path>
                        <path d="M33.0024046,205 C14.7756497,205 0,223.128563 0,245.491764 C0,267.854966 13.3768923,283.181615 33.0024046,285.983529 L278.462073,340 L499,215.662716" id="path4513-6-7" stroke="#333333" stroke-width="28.132741" stroke-linecap="round" stroke-linejoin="round"></path>
                        <path d="M33.0024046,124 C14.7756497,124 0,142.128563 0,164.491764 C0,186.854966 13.3768923,202.181615 33.0024046,204.983529 L152.736135,231.332412 M224.393536,247.101565 L278.462073,259 L499,134.662716" id="path4513-6-7-5-3" stroke="#333333" stroke-width="28.132741" stroke-linecap="round" stroke-linejoin="round"></path>
                        <polygon id="path4513-6-7-5-3-5" stroke="#333333" stroke-width="28.1327411" fill="#333333" fill-rule="nonzero" stroke-linecap="round" stroke-linejoin="round" points="253.510909 0 27 124.090723 278.43574 178 499 53.9088339"></polygon>
                        <polygon id="path4513-6-7-5-3-5-2" stroke="#333333" stroke-width="10.4627448" fill="#F29D16" fill-rule="nonzero" stroke-linecap="round" stroke-linejoin="round" points="270.794181 48 214 80.033839 305.206865 100 362 67.966161"></polygon>
                        <polygon id="path4508" fill="#F49F16" points="172 190 172 272.117016 190.499946 260.739372 211 283 211 196.430838"></polygon>
                    </g>
                </g>
            </g>
            <text id="BENNETT’S-BOOKS" font-family="DINCondensed-Bold, DIN Condensed" font-size="401" font-style="condensed" font-weight="bold" letter-spacing="1.9" fill="#333333">
                <tspan x="598" y="323">BENNETT’S BOOKS</tspan>
            </text>
            <text id="new-&amp;-used" font-family="Merriweather-Italic, Merriweather" font-size="144" font-style="italic" font-weight="normal" letter-spacing="-4.4" fill="#F49F16">
                <tspan x="2315" y="465">new &amp; used</tspan>
            </text>
        </g>
    </g>
</svg>